# xmcd
#
# Track frame offsets:
# 150
# 16704
# 35773
# 53474
# 72242
# 85727
# 102062
# 115086
# 133780
# 152191
# 168046
#
# Disc length: 2529 seconds
#
#
# Revision: 0
# Processed by: cddbd v1.5.1PL0 Copyright (c) Steve Scherf et al.
# Submitted via: FreeRIP 2.60 
#
DISCID=7d09df0b
DTITLE=Sugarland-Twice The Speed Of Life - Twice The Speed Of Life
DYEAR=2004
DGENRE=Country
TTITLE0=Something More
TTITLE1=Baby Girl
TTITLE2=Hello
TTITLE3=Tennessee
TTITLE4=Just Might (Make Me Believe)
TTITLE5=Down In Mississippi (Up To No Good)
TTITLE6=Fly Away
TTITLE7=Speed Of Life
TTITLE8=Small Town Jericho
TTITLE9=Time, Time, Time
TTITLE10=Stand Back Up
EXTD=
EXTT0=
EXTT1=
EXTT2=
EXTT3=
EXTT4=
EXTT5=
EXTT6=
EXTT7=
EXTT8=
EXTT9=
EXTT10=
PLAYORDER=
